<?xml version="1.0" encoding="utf-8"?>
<!-- Generator: Adobe Illustrator 26.1.0, SVG Export Plug-In . SVG Version: 6.00 Build 0)  -->
<svg version="1.1" id="Layer_1" xmlns="http://www.w3.org/2000/svg" xmlns:xlink="http://www.w3.org/1999/xlink" x="0px" y="0px"
	 viewBox="0 0 1385.8 423.2" style="enable-background:new 0 0 1385.8 423.2;" xml:space="preserve">
<style type="text/css">
	.st0{fill:#FFFFFF;}
	.st1{fill:#1C675D;}
	.st2{fill:#097084;}
	.st3{fill:#231F20;}
</style>
<g>
	<path class="st3" d="M496.4,307.5c-14,0-26.9-2.4-38.8-7.3c-11.9-4.9-22.3-11.7-31.3-20.5c-9-8.8-16-19-21-30.8
		c-5-11.8-7.4-24.7-7.4-38.6c0-14,2.5-26.8,7.4-38.6c5-11.8,11.9-22,20.8-30.7c8.9-8.7,19.3-15.4,31.2-20.3
		c11.9-4.9,24.9-7.3,39-7.3c14,0,26.9,2.4,38.9,7.3c12,4.9,22.4,11.7,31.3,20.3c8.9,8.7,15.8,18.9,20.7,30.8
		c4.9,11.9,7.3,24.7,7.3,38.5c0,14-2.5,26.9-7.4,38.6c-5,11.8-11.9,22.1-20.7,30.8c-8.8,8.8-19.2,15.6-31.2,20.5
		C523.3,305,510.4,307.5,496.4,307.5z M496.4,276.2c9.1,0,17.5-1.6,25.4-4.9s14.6-7.9,20.3-13.9c5.7-6,10.2-13,13.4-21
		c3.2-8,4.8-16.7,4.8-26.1c0-9.4-1.6-18.1-4.8-26.1c-3.2-8-7.7-15-13.5-21c-5.8-6-12.5-10.6-20.2-13.8c-7.7-3.2-16.1-4.8-25.4-4.8
		c-9.1,0-17.5,1.6-25.3,4.8c-7.7,3.2-14.6,7.8-20.5,13.8c-5.9,6-10.4,13-13.5,21c-3.1,8-4.7,16.7-4.7,26.1c0,9.4,1.6,18.1,4.7,26.1
		c3.1,8,7.6,15,13.5,21c5.9,6,12.7,10.6,20.5,13.9C478.9,274.5,487.3,276.2,496.4,276.2z"/>
	<path class="st3" d="M625.2,304.4V116.3h70.5c12.8,0,24.1,2.3,34,6.8c9.8,4.5,17.5,11.3,23.1,20.2c5.6,8.9,8.3,19.7,8.3,32.3
		c0,12.6-2.8,23.3-8.5,32.1c-5.6,8.8-13.4,15.5-23.2,20.3c-9.8,4.8-21.1,7.2-33.7,7.2h-35.9v69.2H625.2z M659.8,204.7h36.4
		c6.1,0,11.4-1.2,16-3.7c4.6-2.4,8.2-5.8,10.7-10.2c2.5-4.4,3.8-9.4,3.8-15.2c0-5.7-1.3-10.8-3.9-15.2c-2.6-4.4-6.2-7.7-10.7-10.1
		c-4.5-2.4-9.8-3.5-15.9-3.5h-36.4V204.7z"/>
	<path class="st3" d="M822.4,304.4V146.9h-48.7v-30.6H905v30.6h-48v157.6H822.4z"/>
	<path class="st3" d="M925.7,304.4V116.3h34.6v188.1H925.7z"/>
	<path class="st3" d="M996.1,304.4V116.3h33.1l70.5,95.7H1084l68.9-95.7h32.6v188.1h-34.1v-149l13.4,3.5l-71.7,94.9h-4l-69.7-94.9
		l11.4-3.5v149H996.1z"/>
	<path class="st3" d="M1221.6,304.4V116.3h34.6v157.6h80.3v30.6H1221.6z"/>
</g>
<path class="st1" d="M299.2,190c0,21.5-6.1,41.5-16.8,58.5l-93.8-93.8L162,181.3l-20.9,20.8l-46.3,46.3
	c-10.7-16.9-16.8-36.9-16.8-58.4c0-60.9,49.6-110.5,110.5-110.5C249.6,79.5,299.2,129.1,299.2,190z"/>
<polygon class="st2" points="54.8,328.8 322.5,328.8 188.6,194.9 "/>
</svg>
